<svg id="Layer_2" data-name="Layer 2" xmlns="http://www.w3.org/2000/svg" viewBox="0 0 134.46 121.56"><defs><style>.cls-1{fill:none;stroke-width:2px;}.cls-1,.cls-2{stroke:#fff;stroke-miterlimit:10;}.cls-2{fill:#fff;stroke-width:0.25px;}</style></defs><path class="cls-1" d="M61.61,107a44.94,44.94,0,0,1,16.22,3.57C86.18,114,85.65,116.33,94,120a55.32,55.32,0,0,0,15.7,4.34c4.14.49,7.3.35,10.28.45l.8-.3c17.42-7.08,29.65-23.6,29.65-42.85,0-25.7-21.78-46.53-48.65-46.53S53.17,55.94,53.17,81.64A44.85,44.85,0,0,0,61,107Z" transform="translate(-30.74 -34.11)"/><ellipse class="cls-1" cx="71.59" cy="47.44" rx="35.54" ry="33.97"/><path class="cls-2" d="M99.61,58.76v-5h4.77v4.63l1.83.43c1.34.32,2,.48,2.47.64a14,14,0,0,1,2.93,1.44,21.32,21.32,0,0,1,2.47,1.71l-3.92,6.25-.58-.44a12.56,12.56,0,0,0-3.35-2,7.75,7.75,0,0,0-4.08-.8,5.38,5.38,0,0,0-3.9,2,4.93,4.93,0,0,0-.83,3.76,5.76,5.76,0,0,0,2.17,3,17.41,17.41,0,0,0,4.31,2.56c2.66,1.28,3.09,1.24,4.63,2.13a17.62,17.62,0,0,1,3.54,2.62,15.24,15.24,0,0,1,4.21,8.65,13.39,13.39,0,0,1-.47,6.19,12.7,12.7,0,0,1-2.72,4.63,12,12,0,0,1-4.31,3c-.88.35-2.14.71-2.58.83-.89.25-1.64.43-2.17.54v4.79H99.11l0-4.53-.76-.06a11.78,11.78,0,0,1-1.34-.23,15.29,15.29,0,0,1-3.16-1.27,31.08,31.08,0,0,1-3.55-2c-1.07-.68-2-1.33-2.77-1.91l4.72-6.22c1.82,1,3.15,1.73,4,2.23a10.87,10.87,0,0,0,1.41.7,9,9,0,0,0,3.41.77,6.74,6.74,0,0,0,5-1.92,4.86,4.86,0,0,0,1.25-2.2A5.89,5.89,0,0,0,106.17,89a8,8,0,0,0-2-1.91A54.27,54.27,0,0,0,98,83.27c-4.31-2.45-5.81-3.78-6.67-4.63A13,13,0,0,1,89.25,76a10.88,10.88,0,0,1-1.37-3.32A10.26,10.26,0,0,1,88.36,67a11.86,11.86,0,0,1,4.44-5.52A14.76,14.76,0,0,1,96,59.75a15.85,15.85,0,0,1,3.66-1" transform="translate(-30.74 -34.11)"/><path class="cls-1" d="M74.25,128.37l19.91,11.1,34.6-.76c4.17-1.76,6.78-4.5,6.51-6.9-.06-.51-.42-2.46-5.49-4.72-7.16-3.18-11.53-1.55-20-2.55A55.53,55.53,0,0,1,94,120.2c-8.38-3.67-7.85-6-16.21-9.45a45.21,45.21,0,0,0-16.21-3.58,34.33,34.33,0,0,0-10.85,1.28c-4,1.2-5.37,2.49-9.19,3.45a26.28,26.28,0,0,1-9.83.51v27.06l26,1.92,14.3,6.51L85.35,154l47.11.64,30.38-35.61,1.28-2.17a5.67,5.67,0,0,0-.51-3.45,6.34,6.34,0,0,0-4-2.94,8.76,8.76,0,0,0-7.27,1l-13.15,11-6.13,5.24" transform="translate(-30.74 -34.11)"/></svg>