<svg id="svg" version="1.1" xmlns="http://www.w3.org/2000/svg" xmlns:xlink="http://www.w3.org/1999/xlink" width="40" height="40" viewBox="0, 0, 400,400"><g id="svgg"><path id="path0" d="M231.600 80.204 C 194.428 85.311,173.489 107.519,169.617 145.942 C 169.376 148.340,169.200 160.684,169.200 175.242 L 169.200 200.400 144.000 200.400 L 118.800 200.400 118.800 228.800 L 118.800 257.200 143.999 257.200 L 169.198 257.200 169.299 326.495 L 169.400 395.790 171.400 396.083 C 188.836 398.639,221.112 398.459,230.100 395.757 C 230.763 395.557,230.800 391.905,230.800 326.373 L 230.800 257.200 253.792 257.200 L 276.785 257.200 276.996 256.300 C 277.397 254.587,280.759 233.391,281.009 231.000 C 281.146 229.680,282.236 222.620,283.430 215.310 C 284.623 208.001,285.600 201.656,285.600 201.210 C 285.600 200.405,285.448 200.400,258.178 200.400 L 230.756 200.400 230.894 178.500 C 231.065 151.461,231.723 148.201,238.472 140.987 C 245.519 133.454,251.144 132.000,273.252 132.000 L 288.000 132.000 288.000 107.646 L 288.000 83.292 284.900 82.851 C 281.420 82.356,279.048 82.061,276.400 81.795 C 275.410 81.695,272.170 81.342,269.200 81.011 C 255.654 79.499,239.289 79.148,231.600 80.204 " stroke="none" fill="#fbfbfb" fill-rule="evenodd"></path><path id="path1" d="M186.800 2.438 C 62.289 11.190,-22.773 129.209,8.217 250.213 C 26.988 323.505,88.717 381.239,162.800 394.790 C 165.330 395.253,167.806 395.718,168.301 395.824 L 169.202 396.016 169.101 326.708 L 169.000 257.400 143.700 257.400 L 118.400 257.400 118.400 228.700 L 118.400 200.000 143.834 200.000 L 169.268 200.000 169.174 173.500 C 169.076 145.779,169.219 142.506,170.861 134.800 C 177.625 103.057,199.586 83.431,232.400 79.805 C 245.091 78.402,272.831 80.034,287.300 83.035 L 288.400 83.264 288.400 107.632 L 288.400 132.000 276.500 132.012 C 253.259 132.034,246.827 133.415,240.010 139.846 C 232.038 147.367,231.200 151.113,231.200 179.235 L 231.200 200.000 258.600 200.000 C 280.252 200.000,286.000 200.105,286.002 200.500 C 286.002 200.775,285.287 205.590,284.413 211.200 C 280.709 234.947,279.529 242.571,278.563 249.000 C 278.001 252.740,277.472 256.160,277.388 256.600 C 277.237 257.390,276.960 257.399,254.220 257.294 L 231.204 257.187 231.102 326.564 L 231.000 395.940 232.200 395.730 C 328.944 378.791,397.978 297.340,397.998 200.108 C 398.023 85.563,300.658 -5.566,186.800 2.438 M192.705 398.283 C 193.202 398.379,193.922 398.375,194.305 398.275 C 194.687 398.175,194.280 398.096,193.400 398.101 C 192.520 398.105,192.207 398.187,192.705 398.283 M205.500 398.282 C 205.995 398.378,206.805 398.378,207.300 398.282 C 207.795 398.187,207.390 398.109,206.400 398.109 C 205.410 398.109,205.005 398.187,205.500 398.282 " stroke="none" fill="#7b7b7b" fill-rule="evenodd"></path><path id="path2" d="M184.013 2.023 C 181.930 2.221,178.060 2.667,175.413 3.014 C 172.766 3.362,169.073 3.823,167.206 4.038 C 158.844 5.003,145.439 8.645,129.000 14.417 C 87.421 29.016,45.967 65.670,24.293 107.000 C 20.820 113.621,14.800 126.580,14.800 127.434 C 14.800 127.623,13.640 131.023,12.222 134.989 C 7.881 147.136,4.834 159.797,3.219 172.400 C 0.421 194.246,0.530 209.219,3.642 230.518 C 3.892 232.233,4.180 233.553,4.282 233.451 C 4.383 233.350,4.099 230.417,3.651 226.933 C -11.823 106.842,79.820 1.930,200.132 2.004 C 329.071 2.083,423.475 123.511,392.001 248.800 C 373.168 323.769,310.431 382.247,234.904 395.230 C 231.991 395.731,229.669 396.203,229.745 396.279 C 230.463 396.997,239.445 395.150,255.600 390.963 C 257.030 390.592,260.450 389.491,263.200 388.515 C 265.950 387.540,269.280 386.371,270.600 385.917 C 271.920 385.464,274.440 384.466,276.200 383.701 C 277.960 382.936,280.480 381.841,281.800 381.267 C 334.855 358.196,377.451 307.702,392.198 250.400 C 394.744 240.506,395.535 236.886,395.975 233.106 C 396.187 231.288,396.726 226.984,397.173 223.542 C 399.087 208.798,399.092 191.943,397.185 176.933 C 396.742 173.450,396.198 169.076,395.976 167.214 C 395.499 163.214,394.200 157.271,391.997 149.000 C 390.510 143.418,389.135 139.120,385.790 129.600 C 383.011 121.690,376.099 107.297,371.336 99.504 C 370.161 97.582,369.200 95.928,369.200 95.829 C 369.200 95.527,364.145 88.017,361.294 84.083 C 340.208 54.990,312.477 32.546,279.600 17.965 C 265.993 11.930,243.851 5.393,232.374 4.022 C 230.518 3.801,226.210 3.239,222.800 2.775 C 215.803 1.822,191.173 1.344,184.013 2.023 M4.000 234.180 C 4.000 235.330,6.045 244.310,7.611 250.040 C 8.705 254.042,9.598 257.515,9.596 257.758 C 9.590 258.573,14.841 272.959,16.474 276.600 C 17.362 278.580,18.657 281.550,19.351 283.200 C 20.045 284.850,21.645 288.129,22.907 290.486 C 24.168 292.843,25.200 294.893,25.200 295.040 C 25.200 295.188,26.460 297.355,28.000 299.855 C 29.540 302.356,30.800 304.489,30.800 304.596 C 30.800 304.850,36.883 313.843,39.324 317.200 C 56.922 341.393,81.298 362.482,107.200 375.922 C 109.730 377.235,112.340 378.592,113.000 378.938 C 115.008 379.991,126.753 385.200,127.120 385.200 C 127.309 385.200,130.149 386.200,133.432 387.423 C 136.714 388.646,141.110 390.099,143.200 390.654 C 155.084 393.805,162.478 395.572,164.600 395.768 C 165.920 395.891,167.810 396.083,168.800 396.195 C 171.860 396.542,170.056 396.095,164.017 395.008 C 84.621 380.730,20.013 316.752,5.363 237.900 C 4.805 234.896,4.000 232.699,4.000 234.180 M171.300 396.676 C 171.685 396.776,172.315 396.776,172.700 396.676 C 173.085 396.575,172.770 396.493,172.000 396.493 C 171.230 396.493,170.915 396.575,171.300 396.676 M227.300 396.676 C 227.685 396.776,228.315 396.776,228.700 396.676 C 229.085 396.575,228.770 396.493,228.000 396.493 C 227.230 396.493,226.915 396.575,227.300 396.676 M173.800 396.983 C 176.406 398.214,202.630 399.208,212.400 398.445 C 219.789 397.869,226.469 397.135,226.258 396.924 C 226.168 396.834,222.968 397.076,219.147 397.462 C 210.823 398.302,190.530 398.416,182.800 397.667 C 174.750 396.887,173.377 396.783,173.800 396.983 " stroke="none" fill="#2f3237" fill-rule="evenodd"></path><path id="path3" d="M242.515 79.496 C 243.788 79.576,245.768 79.575,246.915 79.494 C 248.062 79.414,247.020 79.349,244.600 79.350 C 242.180 79.351,241.242 79.416,242.515 79.496 M266.305 80.683 C 266.802 80.779,267.522 80.775,267.905 80.675 C 268.287 80.575,267.880 80.496,267.000 80.501 C 266.120 80.505,265.807 80.587,266.305 80.683 M269.900 81.082 C 270.395 81.178,271.205 81.178,271.700 81.082 C 272.195 80.987,271.790 80.909,270.800 80.909 C 269.810 80.909,269.405 80.987,269.900 81.082 M273.505 81.483 C 274.002 81.579,274.722 81.575,275.105 81.475 C 275.487 81.375,275.080 81.296,274.200 81.301 C 273.320 81.305,273.007 81.387,273.505 81.483 M169.693 142.800 C 169.693 143.570,169.775 143.885,169.876 143.500 C 169.976 143.115,169.976 142.485,169.876 142.100 C 169.775 141.715,169.693 142.030,169.693 142.800 M230.800 200.100 C 230.800 200.265,243.115 200.400,258.167 200.400 C 279.686 200.400,285.576 200.507,285.735 200.900 C 285.856 201.201,285.949 201.123,285.968 200.705 C 285.998 200.053,284.311 200.004,258.400 199.905 C 243.220 199.847,230.800 199.935,230.800 200.100 M118.584 200.500 C 118.479 200.775,118.441 213.690,118.499 229.200 L 118.605 257.400 118.703 228.903 L 118.800 200.406 144.100 200.300 L 169.400 200.194 144.087 200.097 C 124.134 200.021,118.734 200.106,118.584 200.500 M197.500 398.296 C 198.875 398.374,201.125 398.374,202.500 398.296 C 203.875 398.218,202.750 398.154,200.000 398.154 C 197.250 398.154,196.125 398.218,197.500 398.296 " stroke="none" fill="#bbbcc4" fill-rule="evenodd"></path><path id="path4" d="M237.300 79.487 C 237.905 79.578,238.895 79.578,239.500 79.487 C 240.105 79.395,239.610 79.320,238.400 79.320 C 237.190 79.320,236.695 79.395,237.300 79.487 M249.700 79.487 C 250.305 79.578,251.295 79.578,251.900 79.487 C 252.505 79.395,252.010 79.320,250.800 79.320 C 249.590 79.320,249.095 79.395,249.700 79.487 M288.188 108.000 C 288.188 121.310,288.238 126.755,288.300 120.100 C 288.361 113.445,288.361 102.555,288.300 95.900 C 288.238 89.245,288.188 94.690,288.188 108.000 M259.100 132.289 C 259.815 132.378,260.985 132.378,261.700 132.289 C 262.415 132.201,261.830 132.128,260.400 132.128 C 258.970 132.128,258.385 132.201,259.100 132.289 M238.778 140.700 L 237.400 142.200 238.900 140.822 C 240.296 139.538,240.584 139.200,240.278 139.200 C 240.212 139.200,239.537 139.875,238.778 140.700 M168.940 152.800 C 168.940 154.670,169.009 155.435,169.093 154.500 C 169.177 153.565,169.177 152.035,169.093 151.100 C 169.009 150.165,168.940 150.930,168.940 152.800 M230.971 170.800 C 230.971 175.750,231.028 177.775,231.099 175.300 C 231.169 172.825,231.169 168.775,231.099 166.300 C 231.028 163.825,230.971 165.850,230.971 170.800 M230.973 189.400 C 230.973 194.680,231.030 196.785,231.099 194.077 C 231.168 191.369,231.168 187.049,231.099 184.477 C 231.029 181.905,230.972 184.120,230.973 189.400 M230.988 282.400 C 230.988 295.710,231.038 301.155,231.100 294.500 C 231.161 287.845,231.161 276.955,231.100 270.300 C 231.038 263.645,230.988 269.090,230.988 282.400 M230.992 345.800 C 230.992 366.700,231.041 375.309,231.100 364.930 C 231.159 354.552,231.159 337.452,231.100 326.930 C 231.041 316.409,230.992 324.900,230.992 345.800 M230.940 387.600 C 230.940 389.470,231.009 390.235,231.093 389.300 C 231.177 388.365,231.177 386.835,231.093 385.900 C 231.009 384.965,230.940 385.730,230.940 387.600 M230.920 393.200 C 230.920 394.410,230.995 394.905,231.087 394.300 C 231.178 393.695,231.178 392.705,231.087 392.100 C 230.995 391.495,230.920 391.990,230.920 393.200 " stroke="none" fill="#b3b9bb" fill-rule="evenodd"></path></g></svg>