<svg width="72" height="23" viewBox="0 0 72 23" fill="none" xmlns="http://www.w3.org/2000/svg">
<path d="M10.9473 12.0723C10.9473 13.0618 10.6803 13.8203 10.1465 14.3477C9.61263 14.875 8.85742 15.1387 7.88086 15.1387C6.9043 15.1387 6.11654 14.7936 5.51758 14.1035C4.92513 13.4134 4.62891 12.4792 4.62891 11.3008V10.4219C4.62891 9.28906 4.92839 8.3776 5.52734 7.6875C6.1263 6.99089 6.91081 6.64258 7.88086 6.64258C8.85091 6.64258 9.60612 6.90625 10.1465 7.43359C10.6868 7.95443 10.957 8.70964 10.957 9.69922H9.99023C9.99023 8.24089 9.28711 7.51172 7.88086 7.51172C7.19076 7.51172 6.63737 7.77539 6.2207 8.30273C5.80404 8.83008 5.5957 9.55273 5.5957 10.4707V11.3594C5.5957 12.2318 5.80078 12.9349 6.21094 13.4688C6.62109 13.9961 7.17773 14.2598 7.88086 14.2598C8.57096 14.2598 9.0918 14.0872 9.44336 13.7422C9.80143 13.3971 9.98047 12.8405 9.98047 12.0723H10.9473ZM1.875 10.8809C1.875 12.0267 2.13867 13.1009 2.66602 14.1035C3.19987 15.1061 3.94531 15.9004 4.90234 16.4863C5.85938 17.0723 6.88477 17.3652 7.97852 17.3652C9.06576 17.3652 10.0814 17.0755 11.0254 16.4961C11.9694 15.9167 12.7116 15.1289 13.252 14.1328C13.7988 13.1302 14.0723 12.0462 14.0723 10.8809C14.0723 9.72201 13.8021 8.64779 13.2617 7.6582C12.7214 6.66211 11.9759 5.8776 11.0254 5.30469C10.0814 4.72526 9.06576 4.43555 7.97852 4.43555C6.86523 4.43555 5.83008 4.73177 4.87305 5.32422C3.91602 5.91667 3.17708 6.70768 2.65625 7.69727C2.13542 8.68685 1.875 9.74805 1.875 10.8809ZM1.04492 10.8809C1.04492 9.56576 1.34766 8.34505 1.95312 7.21875C2.5651 6.09245 3.4082 5.20703 4.48242 4.5625C5.56315 3.91146 6.72852 3.58594 7.97852 3.58594C9.22852 3.58594 10.3906 3.91146 11.4648 4.5625C12.5391 5.20703 13.3789 6.09245 13.9844 7.21875C14.5964 8.34505 14.9023 9.56576 14.9023 10.8809C14.9023 12.1634 14.6094 13.3646 14.0234 14.4844C13.4375 15.6042 12.6042 16.5059 11.5234 17.1895C10.4492 17.8665 9.26758 18.2051 7.97852 18.2051C6.69596 18.2051 5.51432 17.8698 4.43359 17.1992C3.35938 16.5221 2.52604 15.6237 1.93359 14.5039C1.34115 13.3841 1.04492 12.1764 1.04492 10.8809ZM30.332 14.0156H23.877L22.4121 18H21.1523L26.5332 3.78125H27.6758L33.0566 18H31.8066L30.332 14.0156ZM24.248 12.9902H29.9512L27.0996 5.24609L24.248 12.9902ZM45.1074 13.5664C44.9447 15.0638 44.4076 16.2096 43.4961 17.0039C42.5911 17.7982 41.3835 18.1953 39.873 18.1953C38.8184 18.1953 37.8841 17.9316 37.0703 17.4043C36.263 16.877 35.638 16.1315 35.1953 15.168C34.7526 14.1979 34.528 13.0911 34.5215 11.8477V10.002C34.5215 8.73893 34.7428 7.61914 35.1855 6.64258C35.6283 5.66602 36.263 4.91406 37.0898 4.38672C37.9232 3.85286 38.8802 3.58594 39.9609 3.58594C41.4844 3.58594 42.6855 3.99935 43.5645 4.82617C44.4499 5.64648 44.9642 6.78255 45.1074 8.23438H43.8965C43.597 5.81901 42.2852 4.61133 39.9609 4.61133C38.6719 4.61133 37.6432 5.0931 36.875 6.05664C36.1133 7.02018 35.7324 8.35156 35.7324 10.0508V11.7891C35.7324 13.4297 36.1035 14.7383 36.8457 15.7148C37.5944 16.6914 38.6035 17.1797 39.873 17.1797C41.1296 17.1797 42.0768 16.8802 42.7148 16.2812C43.3529 15.6758 43.7467 14.7708 43.8965 13.5664H45.1074ZM56.0742 14.5039C56.0742 13.7161 55.7975 13.0944 55.2441 12.6387C54.6908 12.1764 53.6784 11.7402 52.207 11.3301C50.7357 10.9134 49.6615 10.4609 48.9844 9.97266C48.0208 9.28255 47.5391 8.3776 47.5391 7.25781C47.5391 6.17057 47.985 5.28841 48.877 4.61133C49.7754 3.92773 50.9212 3.58594 52.3145 3.58594C53.2585 3.58594 54.1016 3.76823 54.8438 4.13281C55.5924 4.4974 56.1719 5.00521 56.582 5.65625C56.9922 6.30729 57.1973 7.0332 57.1973 7.83398H55.9863C55.9863 6.86393 55.6543 6.08594 54.9902 5.5C54.3262 4.90755 53.4342 4.61133 52.3145 4.61133C51.2272 4.61133 50.3613 4.85547 49.7168 5.34375C49.0723 5.82552 48.75 6.45703 48.75 7.23828C48.75 7.96094 49.0397 8.55013 49.6191 9.00586C50.1986 9.46159 51.1263 9.86523 52.4023 10.2168C53.6784 10.5618 54.6452 10.9232 55.3027 11.3008C55.9603 11.6719 56.4551 12.1178 56.7871 12.6387C57.1191 13.1595 57.2852 13.7747 57.2852 14.4844C57.2852 15.6042 56.8359 16.5026 55.9375 17.1797C55.0456 17.8568 53.8672 18.1953 52.4023 18.1953C51.3997 18.1953 50.4785 18.0163 49.6387 17.6582C48.8053 17.3001 48.1706 16.7988 47.7344 16.1543C47.3047 15.5098 47.0898 14.7708 47.0898 13.9375H48.291C48.291 14.9401 48.6654 15.7311 49.4141 16.3105C50.1628 16.89 51.1589 17.1797 52.4023 17.1797C53.5091 17.1797 54.3978 16.9355 55.0684 16.4473C55.7389 15.959 56.0742 15.3112 56.0742 14.5039ZM69.6777 3.78125V13.4883C69.6712 14.4453 69.4596 15.2786 69.043 15.9883C68.6263 16.6979 68.0371 17.2448 67.2754 17.6289C66.5202 18.0065 65.651 18.1953 64.668 18.1953C63.1706 18.1953 61.9694 17.7884 61.0645 16.9746C60.166 16.1543 59.7005 15.0215 59.668 13.5762V3.78125H60.8594V13.4004C60.8594 14.5983 61.2012 15.5293 61.8848 16.1934C62.5684 16.8509 63.4961 17.1797 64.668 17.1797C65.8398 17.1797 66.7643 16.8477 67.4414 16.1836C68.125 15.5195 68.4668 14.5951 68.4668 13.4102V3.78125H69.6777Z" fill="#403C3C"/>
</svg>
