<svg id="Layer_1" data-name="Layer 1" xmlns="http://www.w3.org/2000/svg" viewBox="0 0 139.87 110"><defs><style>.cls-1{fill:#585858;}</style></defs><circle class="cls-1" cx="69.37" cy="39.26" r="22.55"/><path class="cls-1" d="M134.2,129.41c0,19.36-64.36,19.36-64.36,0s14.41-35,32.18-35S134.2,110.05,134.2,129.41Z" transform="translate(-32.35 -33.94)"/><path class="cls-1" d="M135.54,34.73a25.09,25.09,0,0,0-23,15,25.86,25.86,0,0,1,15,23.49,25.58,25.58,0,0,1-1.89,9.69,25.08,25.08,0,1,0,9.83-48.16Z" transform="translate(-32.35 -33.94)"/><path class="cls-1" d="M76.19,73A25.89,25.89,0,0,1,91.43,49.37,25.07,25.07,0,1,0,77.89,82.19,26,26,0,0,1,76.19,73Z" transform="translate(-32.35 -33.94)"/><path class="cls-1" d="M135.54,78.31a34.42,34.42,0,0,0-8.41,1.06,25.86,25.86,0,0,1-10.62,15c13.31,6.47,22.69,21.89,22.73,39.91,17-.69,33-6.13,33-16.35C172.22,96.07,155.8,78.31,135.54,78.31Z" transform="translate(-32.35 -33.94)"/><path class="cls-1" d="M76.84,79.22a34.11,34.11,0,0,0-7.8-.91c-20.26,0-36.69,17.76-36.69,39.67,0,10.22,15.95,15.66,33,16.35,0-17.71,9.11-32.91,22-39.57A25.87,25.87,0,0,1,76.84,79.22Z" transform="translate(-32.35 -33.94)"/></svg>